<?xml version="1.0" standalone="no"?>
<!DOCTYPE svg PUBLIC "-//W3C//DTD SVG 20010904//EN"
 "http://www.w3.org/TR/2001/REC-SVG-20010904/DTD/svg10.dtd">
<svg version="1.0" xmlns="http://www.w3.org/2000/svg"
 width="512.000000pt" height="512.000000pt" viewBox="0 0 512.000000 512.000000"
 preserveAspectRatio="xMidYMid meet">
<metadata>
Created by potrace 1.16, written by Peter Selinger 2001-2019
</metadata>
<g transform="translate(0.000000,512.000000) scale(0.100000,-0.100000)"
fill="#000000" stroke="none">
<path d="M180 4940 c-13 -13 -20 -33 -20 -61 0 -37 7 -48 85 -129 111 -115
136 -167 148 -310 18 -205 66 -341 166 -471 96 -124 219 -207 393 -263 308
-100 505 -285 597 -562 29 -87 57 -282 43 -295 -28 -24 -845 -488 -852 -484
-16 10 -12 347 5 460 35 232 117 466 234 664 17 29 31 56 31 61 0 4 -30 27
-67 50 l-67 43 -17 -22 c-30 -37 -105 -182 -149 -286 -79 -190 -133 -413 -146
-599 l-7 -96 -115 0 -115 0 6 98 c20 297 121 629 276 910 l40 72 -37 23 c-20
13 -54 33 -74 45 l-37 23 -45 -84 c-148 -272 -241 -556 -281 -860 -20 -155
-20 -459 0 -614 70 -532 307 -1016 685 -1393 295 -295 659 -508 1061 -620 l67
-18 20 81 c12 45 20 83 18 84 -1 1 -42 14 -92 28 -94 28 -267 94 -321 123
l-31 17 55 95 c30 52 56 96 57 98 2 1 33 -12 70 -28 37 -17 70 -28 75 -26 9 6
65 146 60 150 -2 2 -60 30 -130 63 -381 185 -686 490 -865 868 -37 78 -94 222
-94 238 0 2 28 -10 63 -28 87 -47 168 -65 283 -65 154 0 321 50 414 122 l25
20 5 -289 5 -288 27 -58 c38 -81 61 -105 216 -231 86 -70 139 -120 143 -136 4
-14 8 -119 8 -235 1 -203 2 -213 29 -291 47 -135 140 -244 261 -308 98 -51
161 -66 274 -66 79 0 113 5 174 25 174 59 299 184 358 358 23 71 25 89 26 284
1 114 4 219 8 233 4 16 57 66 143 136 246 200 248 204 248 592 l0 274 33 -21
c123 -82 256 -121 411 -121 115 0 196 18 284 65 34 18 62 29 62 24 0 -15 -71
-190 -102 -254 -185 -371 -487 -670 -859 -849 l-127 -61 29 -74 c15 -40 30
-75 32 -77 6 -6 163 62 215 92 23 14 46 23 51 20 11 -7 113 -187 109 -191 -2
-2 -52 -28 -113 -58 -127 -63 -271 -118 -388 -149 -45 -12 -86 -25 -90 -29 -5
-4 -1 -42 8 -84 l17 -77 42 6 c73 12 332 103 451 160 506 240 908 641 1146
1142 156 328 230 662 230 1039 -1 382 -77 715 -241 1050 -95 194 -81 183 -165
133 -38 -22 -72 -43 -74 -44 -2 -2 1 -9 7 -16 22 -28 132 -258 167 -352 70
-190 135 -496 135 -643 l0 -53 -115 0 -115 0 0 45 c0 146 -62 428 -136 615
-49 124 -141 300 -157 300 -7 0 -116 -61 -136 -76 -2 -2 28 -67 67 -146 75
-152 127 -300 162 -463 17 -79 23 -147 27 -318 4 -140 2 -222 -5 -229 -6 -6
-149 71 -428 233 -231 133 -422 245 -426 248 -14 13 14 208 43 295 92 277 289
462 597 562 174 56 297 139 393 263 100 130 148 266 166 471 12 143 37 195
148 310 78 81 85 92 85 129 0 52 -27 81 -75 81 -44 0 -396 -100 -452 -128 -57
-29 -127 -103 -157 -165 -15 -30 -30 -86 -36 -132 -15 -110 -25 -136 -68 -178
-47 -45 -66 -52 -181 -66 -343 -42 -623 -174 -853 -402 l-98 -97 0 51 c0 37 6
58 24 81 59 79 102 200 108 307 l3 56 35 -12 c19 -7 61 -24 93 -39 l58 -25 36
74 c19 41 33 78 30 82 -3 4 -51 26 -106 48 -55 22 -101 43 -101 47 0 3 31 27
68 52 114 75 152 152 152 306 0 111 -18 140 -85 140 -46 0 -60 -11 -97 -78
-26 -49 -66 -63 -209 -72 -210 -14 -256 -55 -354 -307 -33 -85 -57 -112 -80
-93 -8 7 -15 16 -15 20 0 4 20 38 44 75 56 84 76 166 76 308 0 123 -13 147
-79 147 -35 0 -47 -8 -132 -92 -70 -70 -122 -109 -204 -158 -117 -69 -182
-122 -216 -176 -11 -19 -27 -34 -34 -34 -43 0 -345 -114 -345 -130 0 -6 59
-141 64 -147 1 -1 51 17 112 42 l109 44 6 -122 c6 -121 17 -164 58 -245 14
-27 21 -60 21 -95 l0 -55 -97 97 c-231 228 -511 360 -854 402 -115 14 -134 21
-181 66 -43 42 -53 68 -68 178 -17 132 -78 228 -183 289 -52 31 -410 136 -462
136 -22 0 -43 -8 -55 -20z m455 -283 c49 -39 70 -88 83 -189 18 -138 75 -232
179 -290 51 -29 53 -31 37 -49 -16 -17 -13 -22 42 -79 l59 -61 67 60 c36 34
73 61 83 61 9 0 48 -7 86 -16 l70 -16 -36 -43 -35 -44 66 -56 67 -56 31 38
c17 21 42 50 56 66 l25 28 50 -26 c78 -41 145 -86 141 -94 -3 -4 -39 -18 -82
-31 -42 -13 -78 -30 -81 -37 -4 -10 32 -139 42 -151 2 -2 67 17 145 42 l142
46 42 -47 c58 -67 79 -93 74 -98 -2 -2 -51 -12 -108 -21 -58 -9 -109 -20 -113
-24 -5 -4 -3 -42 3 -84 10 -58 17 -76 29 -76 9 0 78 10 154 22 75 11 140 19
143 16 3 -3 21 -41 39 -84 l34 -79 -149 -3 -150 -3 0 -79 0 -80 169 0 c152 0
170 -2 176 -17 3 -10 9 -64 12 -120 l6 -103 -235 0 -235 0 -6 93 c-21 334
-231 650 -540 812 -45 23 -132 59 -193 79 -222 73 -341 179 -420 375 -17 43
-29 101 -38 198 -12 120 -27 182 -61 265 -7 16 -4 16 44 0 28 -10 67 -30 86
-45z m3980 46 c-34 -84 -49 -146 -61 -266 -9 -97 -21 -155 -38 -198 -79 -196
-198 -302 -420 -375 -304 -100 -514 -279 -641 -547 -56 -118 -84 -224 -92
-344 l-6 -93 -235 0 -235 0 6 103 c3 56 9 110 12 120 6 15 24 17 176 17 l169
0 0 80 0 79 -150 3 -149 3 34 79 c18 43 37 81 40 84 3 3 67 -4 143 -16 75 -12
144 -22 153 -22 12 0 19 18 29 76 6 42 8 80 3 84 -4 4 -55 15 -113 24 -57 9
-106 19 -108 21 -5 5 16 31 74 98 l42 47 142 -46 c78 -25 143 -44 145 -42 10
12 46 141 42 151 -3 7 -39 24 -81 37 -43 13 -79 27 -82 31 -4 8 63 53 141 94
l50 26 25 -28 c14 -16 39 -45 56 -66 l31 -38 67 56 66 56 -35 44 -36 43 70 16
c38 9 77 16 86 16 10 0 47 -27 83 -61 l67 -60 59 61 c55 57 58 62 42 79 -16
18 -14 20 37 49 104 58 161 152 179 290 13 101 34 150 83 189 27 22 97 54 134
62 2 1 0 -7 -4 -16z m-2091 -65 c-4 -7 -18 -27 -30 -43 -92 -123 -83 -258 23
-325 56 -36 92 -44 150 -35 85 13 158 107 219 283 30 86 58 111 134 122 36 5
85 10 109 10 l44 0 -47 -41 c-49 -43 -90 -105 -107 -161 -5 -18 -14 -89 -19
-158 -13 -191 -49 -264 -153 -314 -28 -14 -60 -31 -70 -38 -15 -11 -20 -10
-28 4 -40 71 -132 138 -189 138 -57 0 -149 -67 -189 -138 -8 -14 -13 -15 -28
-4 -10 7 -42 24 -72 38 -71 35 -93 82 -99 210 -4 75 0 104 17 156 27 80 66
135 120 168 23 14 81 50 129 82 99 64 96 62 86 46z m71 -782 c16 -21 30 -58
37 -96 13 -77 34 -100 89 -100 32 0 45 6 62 26 12 15 39 45 59 68 l37 41 1
-80 0 -80 -80 -120 -80 -120 0 -257 0 -258 -160 0 -160 0 0 258 0 257 -80 120
-80 120 0 80 1 80 37 -41 c20 -23 47 -53 59 -68 16 -19 31 -26 58 -26 67 0 80
17 99 132 7 36 48 98 66 98 5 0 21 -15 35 -34z m765 -1429 l0 -293 -272 -152
c-195 -108 -275 -147 -280 -138 -9 17 -159 -3 -166 -22 -3 -11 64 -518 73
-548 2 -7 25 -7 82 0 66 9 78 14 81 31 1 11 -8 93 -21 181 l-23 162 44 21 45
22 31 -30 c43 -42 95 -61 166 -61 95 0 179 55 221 145 l19 40 0 -80 c0 -112
-15 -192 -45 -237 -14 -21 -88 -88 -165 -150 -192 -153 -190 -149 -190 -405
l0 -193 -400 0 -400 0 0 193 c0 256 2 252 -190 405 -77 62 -151 129 -165 150
-30 45 -45 125 -45 237 l0 80 19 -40 c43 -92 124 -145 221 -145 71 0 123 19
166 61 l31 30 45 -22 44 -21 -23 -162 c-13 -88 -22 -170 -21 -181 3 -17 15
-22 81 -31 57 -7 80 -7 82 0 9 30 76 537 73 548 -7 19 -157 39 -166 22 -5 -9
-86 32 -279 139 l-273 151 0 293 0 293 800 0 800 0 0 -293z m-1762 63 c-4
-108 -8 -134 -30 -180 -67 -145 -232 -227 -437 -218 -107 5 -175 30 -246 91
l-38 33 374 217 c306 178 375 214 378 200 2 -10 1 -74 -1 -143z m2098 61 c93
-54 261 -151 373 -216 l204 -119 -38 -33 c-70 -60 -139 -86 -241 -91 -155 -7
-272 29 -363 114 -88 81 -104 125 -109 302 -2 78 -2 142 1 142 3 0 81 -44 173
-99z m-3132 -168 c14 -210 89 -486 186 -687 98 -205 206 -359 365 -524 129
-135 246 -228 424 -339 5 -3 -99 -182 -110 -189 -12 -7 -176 102 -284 189
-108 87 -284 271 -371 387 -89 119 -184 277 -242 400 -111 239 -202 605 -202
812 l0 48 114 0 113 0 7 -97z m4226 45 c0 -84 -37 -309 -70 -436 -107 -401
-311 -746 -612 -1038 -112 -108 -286 -246 -300 -238 -3 2 -30 46 -59 96 -52
90 -52 91 -32 107 11 9 57 45 102 80 44 35 130 114 189 175 317 331 517 774
549 1219 l6 87 113 0 114 0 0 -52z m-1892 -1909 c-32 -57 -109 -126 -176 -157
-50 -24 -69 -27 -162 -27 -93 0 -112 3 -162 27 -67 31 -144 100 -176 157 l-23
41 361 0 361 0 -23 -41z"/>
<path d="M2180 2620 c-33 -33 -26 -84 24 -171 l43 -77 -74 -32 c-40 -18 -78
-41 -83 -51 -17 -31 -12 -87 10 -109 18 -18 33 -20 144 -20 l125 0 58 -102
c72 -127 82 -138 133 -138 51 0 61 11 133 138 l58 102 125 0 c111 0 126 2 144
20 22 22 27 78 10 109 -5 10 -43 33 -83 51 l-74 32 43 77 c50 87 57 138 24
171 -34 34 -82 25 -237 -44 l-143 -64 -142 64 c-156 69 -204 78 -238 44z"/>
<path d="M2320 1036 c0 -82 1 -84 26 -90 16 -4 30 -18 37 -36 l11 -30 167 0
167 0 6 26 c4 16 18 30 36 37 30 11 30 12 30 94 l0 83 -32 0 c-71 -1 -178 -81
-194 -145 -8 -32 -20 -32 -28 0 -16 64 -123 144 -193 145 l-33 0 0 -84z"/>
<path d="M2148 4930 c-352 -63 -688 -201 -975 -404 -40 -28 -73 -56 -73 -62 0
-13 82 -119 95 -122 6 -2 58 29 117 69 58 39 111 68 116 65 6 -3 26 -34 46
-69 19 -34 39 -68 44 -75 7 -10 25 -3 80 28 40 23 72 45 72 48 0 4 -20 41 -44
82 l-44 75 51 26 c140 71 417 154 605 180 l93 13 -7 76 c-3 41 -8 78 -11 83
-6 11 -46 8 -165 -13z"/>
<path d="M3505 4685 c-19 -42 -35 -78 -35 -80 0 -2 42 -25 93 -50 50 -26 94
-48 96 -50 2 -2 -6 -20 -18 -39 l-22 -35 69 -40 c37 -23 72 -41 78 -41 5 0 17
14 26 31 l18 30 60 -42 c33 -23 62 -40 64 -38 16 17 96 124 96 129 0 21 -247
178 -398 254 l-93 47 -34 -76z"/>
<path d="M1120 3120 l0 -80 80 0 80 0 0 80 0 80 -80 0 -80 0 0 -80z"/>
<path d="M3840 3120 l0 -80 80 0 80 0 0 80 0 80 -80 0 -80 0 0 -80z"/>
<path d="M3760 1680 l0 -80 80 0 80 0 0 80 0 80 -80 0 -80 0 0 -80z"/>
<path d="M1200 1600 l0 -80 80 0 80 0 0 80 0 80 -80 0 -80 0 0 -80z"/>
</g>
</svg>
